<?xml version="1.0" standalone="no"?>
<!DOCTYPE svg PUBLIC "-//W3C//DTD SVG 20010904//EN"
 "http://www.w3.org/TR/2001/REC-SVG-20010904/DTD/svg10.dtd">
<svg version="1.0" xmlns="http://www.w3.org/2000/svg"
 width="220.000000pt" height="229.000000pt" viewBox="0 0 220.000000 229.000000"
 preserveAspectRatio="xMidYMid meet">

<g transform="translate(0.000000,229.000000) scale(0.100000,-0.100000)"
fill="#000000" stroke="none">
<path d="M615 2124 c-339 -104 -521 -164 -542 -180 -17 -13 -39 -43 -48 -69
-18 -45 -17 -53 44 -603 55 -490 65 -561 84 -594 23 -38 738 -615 807 -650 46
-24 95 -22 155 6 93 43 929 516 953 539 52 48 52 48 89 664 35 573 36 584 17
624 -10 23 -32 51 -48 64 -42 32 -899 347 -956 351 -36 3 -146 -27 -555 -152z
m656 -40 c47 -47 -26 -96 -143 -96 -127 0 -170 65 -73 109 19 8 59 12 112 11
69 -3 86 -7 104 -24z m-501 -129 c90 -46 9 -120 -130 -120 -114 0 -168 42
-117 92 49 50 178 64 247 28z m913 -22 c70 -28 70 -80 1 -103 -53 -18 -183 -8
-225 16 -122 71 73 147 224 87z m-445 -6 c95 -51 -39 -128 -197 -113 -136 12
-160 83 -42 121 61 19 194 15 239 -8z m-37 -183 c50 -30 46 -62 -11 -94 -40
-22 -57 -25 -145 -25 -116 0 -165 18 -165 60 0 72 228 113 321 59z m-861 -183
c62 -65 90 -188 54 -239 -52 -74 -174 56 -174 187 0 97 55 121 120 52z m1575
-51 c16 -6 32 -24 42 -47 44 -108 -59 -280 -163 -271 -127 11 -88 251 51 314
37 16 38 16 70 4z m-1184 -169 c42 -45 79 -133 79 -191 0 -52 -36 -96 -72 -87
-43 11 -79 48 -109 111 -73 154 0 274 102 167z m705 -54 c40 -35 45 -108 11
-179 -14 -29 -32 -60 -39 -68 -62 -72 -141 -81 -173 -19 -34 65 -8 171 58 239
54 55 100 64 143 27z m-1073 -37 c33 -26 74 -111 82 -171 9 -62 -14 -119 -48
-119 -80 0 -163 214 -111 288 19 27 44 28 77 2z m392 -274 c71 -73 99 -206 55
-254 -25 -26 -47 -28 -80 -5 -42 29 -69 66 -90 121 -58 151 17 241 115 138z
m1162 -41 c47 -33 52 -127 13 -206 -10 -19 -37 -52 -59 -72 -94 -85 -191 -16
-160 115 15 66 61 133 106 157 46 24 72 26 100 6z m-1504 -32 c79 -83 91 -233
19 -233 -73 0 -151 169 -108 235 22 33 55 32 89 -2z m1024 -198 c28 -19 45
-81 37 -126 -10 -52 -50 -124 -84 -153 -63 -53 -123 -46 -154 18 -60 122 102
331 201 261z m-671 -57 c73 -64 110 -207 68 -266 -46 -66 -159 31 -186 160
-25 121 37 177 118 106z"/>
</g>
</svg>
