<svg xmlns="http://www.w3.org/2000/svg" width="96" height="109.714" viewBox="0 0 96 109.714">
  <path id="user" d="M67.2,61.714c-6.15,0-9.107,3.429-19.2,3.429s-13.029-3.429-19.2-3.429A28.807,28.807,0,0,0,0,90.514v8.914a10.288,10.288,0,0,0,10.286,10.286H85.714A10.288,10.288,0,0,0,96,99.429V90.514A28.807,28.807,0,0,0,67.2,61.714ZM89.143,99.429a3.439,3.439,0,0,1-3.429,3.429H10.286a3.439,3.439,0,0,1-3.429-3.429V90.514A21.958,21.958,0,0,1,28.8,68.571C33,68.571,37.179,72,48,72c10.8,0,15-3.429,19.2-3.429A21.958,21.958,0,0,1,89.143,90.514ZM48,54.857A27.429,27.429,0,1,0,20.571,27.429,27.426,27.426,0,0,0,48,54.857Zm0-48A20.571,20.571,0,1,1,27.429,27.429,20.6,20.6,0,0,1,48,6.857Z" fill="rgba(34,34,34,0.5)"/>
</svg>